<?xml version="1.0" encoding="UTF-8" standalone="no"?>
<svg
   width="186.34259"
   height="158.02299"
   viewBox="0 0 186.34259 158.02299"
   fill="none"
   version="1.1"
   id="svg32"
   sodipodi:docname="logo2.svg"
   inkscape:version="1.4.2 (f4327f4, 2025-05-13)"
   xmlns:inkscape="http://www.inkscape.org/namespaces/inkscape"
   xmlns:sodipodi="http://sodipodi.sourceforge.net/DTD/sodipodi-0.dtd"
   xmlns="http://www.w3.org/2000/svg"
   xmlns:svg="http://www.w3.org/2000/svg">
  <defs
     id="defs32" />
  <sodipodi:namedview
     id="namedview32"
     pagecolor="#ffffff"
     bordercolor="#000000"
     borderopacity="0.25"
     inkscape:showpageshadow="2"
     inkscape:pageopacity="0.0"
     inkscape:pagecheckerboard="0"
     inkscape:deskcolor="#d1d1d1"
     inkscape:zoom="2.5377359"
     inkscape:cx="105.2119"
     inkscape:cy="89.252788"
     inkscape:window-width="1920"
     inkscape:window-height="1009"
     inkscape:window-x="-8"
     inkscape:window-y="-8"
     inkscape:window-maximized="1"
     inkscape:current-layer="svg32" />
  <path
     d="m 167.46307,34.4571 h -24.186 v 55.6616"
     stroke="#003f78"
     stroke-width="4"
     id="path1" />
  <path
     d="m 143.26607,108.672 v 21.205 h -16.235"
     stroke="#003f78"
     stroke-width="4"
     id="path2" />
  <path
     d="M 113.12507,59.6372 V 130.208"
     stroke="#003f78"
     stroke-width="4"
     id="path3" />
  <path
     d="M 16.05337,50.3607 V 120.932"
     stroke="#003f78"
     stroke-width="4"
     id="path4" />
  <path
     d="m 76.35127,34.4571 h 36.7768"
     stroke="#003f78"
     stroke-width="4"
     id="path5" />
  <path
     d="m 77.66477,4.96983 h 89.1253"
     stroke="#003f78"
     stroke-width="4"
     id="path6" />
  <path
     d="m 16.05337,5.30121 h 31.4754 V 129.546 h -15.572"
     stroke="#003f78"
     stroke-width="4"
     id="path7" />
  <path
     d="M 182.69507,4.96983 V 34.1259"
     stroke="#003f78"
     stroke-width="4"
     id="path8" />
  <path
     d="m 125.38207,14.9091 h 50.361 v 9.6083 h -32.138"
     stroke="#003f78"
     stroke-width="4"
     id="path9" />
  <path
     d="m 102.85207,14.9091 h -19.2166 v 9.9396 h 38.7646 v 95.0883 h 11.265 V 24.8487"
     stroke="#003f78"
     stroke-width="4"
     id="path10" />
  <path
     d="M 36.93157,39.4269 V 120.269 H 25.66667 V 25.1801 15.5719 h 4.9698"
     stroke="#003f78"
     stroke-width="4"
     id="path11" />
  <circle
     cx="77.333672"
     cy="4.9692602"
     r="3.64451"
     fill="#003f78"
     id="circle11" />
  <circle
     cx="37.580769"
     cy="38.101601"
     r="3.64451"
     fill="#003f78"
     id="circle12" />
  <circle
     cx="31.615871"
     cy="14.9089"
     r="3.64451"
     fill="#003f78"
     id="circle13" />
  <circle
     cx="16.378571"
     cy="48.041199"
     r="3.64451"
     fill="#003f78"
     id="circle14" />
  <circle
     cx="16.378571"
     cy="120.931"
     r="3.64451"
     fill="#003f78"
     id="circle15" />
  <circle
     cx="16.378571"
     cy="5.63237"
     r="3.64451"
     fill="#003f78"
     id="circle16" />
  <circle
     cx="167.45506"
     cy="34.1259"
     r="3.64451"
     fill="#003f78"
     id="circle17" />
  <circle
     cx="143.60107"
     cy="24.8489"
     r="3.64451"
     fill="#003f78"
     id="circle18" />
  <circle
     cx="133.65508"
     cy="24.8489"
     r="3.64451"
     fill="#003f78"
     id="circle19" />
  <circle
     cx="125.70807"
     cy="14.9089"
     r="3.64451"
     fill="#003f78"
     id="circle20" />
  <circle
     cx="113.12207"
     cy="34.1259"
     r="3.64451"
     fill="#003f78"
     id="circle21" />
  <circle
     cx="113.12207"
     cy="58.643299"
     r="3.64451"
     fill="#003f78"
     id="circle22" />
  <circle
     cx="113.12207"
     cy="129.54601"
     r="3.64451"
     fill="#003f78"
     id="circle23" />
  <circle
     cx="127.03906"
     cy="129.54601"
     r="3.64451"
     fill="#003f78"
     id="circle24" />
  <circle
     cx="76.67057"
     cy="34.1259"
     r="3.64451"
     fill="#003f78"
     id="circle25" />
  <circle
     cx="102.51707"
     cy="14.9089"
     r="3.64451"
     fill="#003f78"
     id="circle26" />
  <circle
     cx="143.60107"
     cy="108.341"
     r="3.64451"
     fill="#003f78"
     id="circle27" />
  <circle
     cx="143.60107"
     cy="90.449699"
     r="3.64451"
     fill="#003f78"
     id="circle28" />
  <circle
     cx="182.69807"
     cy="34.7882"
     r="3.64451"
     fill="#003f78"
     id="circle29" />
  <circle
     cx="182.69807"
     cy="3.64451"
     r="3.64451"
     fill="#003f78"
     id="circle30" />
  <circle
     cx="166.79707"
     cy="4.9692602"
     r="3.64451"
     fill="#003f78"
     id="circle31" />
  <circle
     cx="30.29657"
     cy="129.54601"
     r="3.64451"
     fill="#003f78"
     id="circle32" />
  <path
     d="m 0.00162,158.023 -0.00118,-13.5 c 0.93164,0 1.72268,0.334 2.37313,1.002 0.66803,0.667 1.00208,1.458 1.00216,2.373 l 5.9e-4,6.75 10.12505,-0.001 -3e-4,-3.375 H 5.06353 l -3e-4,-3.375 11.81254,-0.001 6e-4,6.75 c 0,0.95 -0.3339,1.749 -1.0018,2.4 -0.6679,0.65 -1.4589,0.976 -2.373,0.976 z m 11.81165,-10.126 -5e-4,-5.063 L 2.9e-4,142.835 0,139.46 l 15.18747,-0.001 5e-4,5.063 c 10e-5,0.949 -0.3339,1.749 -1.0018,2.399 -0.6679,0.65 -1.4589,0.976 -2.3729,0.976 z m 12.1846,10.124 -4e-4,-5.063 h 3.375 l 10e-5,1.687 h 10.125 l -3e-4,-3.375 -13.5,10e-4 -6e-4,-6.75 3.375,-10e-4 3e-4,3.375 13.5,-0.001 6e-4,6.75 c 10e-5,0.949 -0.3338,1.749 -1.0017,2.4 -0.668,0.65 -1.4589,0.975 -2.373,0.976 z m 20.25,-0.002 -0.0012,-13.5 h 3.375 l 0.0012,13.5 z m 10.4962,-0.001 -0.0013,-15.187 c -1e-4,-0.932 0.3251,-1.723 0.9754,-2.374 0.6679,-0.668 1.4677,-1.002 2.3993,-1.002 l 13.5,-0.001 6e-4,6.75 h -3.375 l -3e-4,-3.375 -10.125,0.001 0.0011,11.813 10.125,-0.001 -3e-4,-3.375 h 3.375 l 3e-4,3.375 c 0,0.949 -0.3339,1.749 -1.0018,2.399 -0.6679,0.651 -1.4589,0.976 -2.373,0.976 z m 23.9963,-0.002 -9e-4,-10.125 c -1e-4,-0.932 0.3251,-1.723 0.9754,-2.373 0.6679,-0.668 1.4677,-1.002 2.3993,-1.002 l 9e-4,10.125 10.125,-0.001 -0.001,-11.813 -13.5,0.001 c -1e-4,-0.931 0.325,-1.722 0.9754,-2.373 0.6679,-0.668 1.4676,-1.002 2.3993,-1.002 l 13.5,-0.001 0.0013,15.187 c 1e-4,0.95 -0.3338,1.75 -1.0017,2.4 -0.6679,0.65 -1.4589,0.976 -2.373,0.976 z m 30.7467,-0.003 -0.002,-13.5 h 3.375 l 0.002,13.5 z m -6.752,-15.187 v -3.375 l 16.875,-0.001 v 3.375 z m 37.498,15.185 -0.001,-6.75 h -1.687 l -0.001,-3.375 h 1.688 c 0.932,-0.001 1.723,0.333 2.373,1.001 0.668,0.668 1.002,1.459 1.002,2.373 l 0.001,6.75 z m -13.501,-11.812 -10e-4,-6.75 h 3.375 l 0.001,6.75 z m 0.001,11.813 -0.001,-10.125 6.75,-0.001 -0.001,-5.062 c 0,-0.932 0.326,-1.723 0.976,-2.373 0.668,-0.668 1.468,-1.003 2.399,-1.003 h 6.75 v 3.375 h -6.75 l 0.001,5.063 c 0,0.949 -0.334,1.749 -1.002,2.399 -0.668,0.651 -1.459,0.976 -2.373,0.976 h -3.375 l 0.001,6.75 z m 23.996,-0.002 -0.001,-10.125 11.813,-0.001 c 0,0.949 -0.334,1.749 -1.002,2.399 -0.668,0.651 -1.459,0.976 -2.373,0.976 h -5.063 l 0.001,6.75 z m 13.5,-0.002 -0.001,-15.187 -10.125,0.001 v 3.375 h -3.375 v -3.375 c 0,-0.931 0.325,-1.723 0.975,-2.373 0.668,-0.668 1.468,-1.002 2.399,-1.002 l 13.5,-0.001 0.002,18.562 z"
     fill="#003f78"
     id="path32" />
</svg>
